<svg width="17" height="29" viewBox="0 0 17 29" fill="none" xmlns="http://www.w3.org/2000/svg">
<path fill-rule="evenodd" clip-rule="evenodd" d="M14.6328 8.23974C14.3868 7.97098 14.0794 7.70741 13.7104 7.44899C13.3415 7.19057 12.9161 6.95284 12.4345 6.73577C11.9528 6.5187 11.4352 6.34298 10.8818 6.2086C10.3283 6.07423 9.74416 5.9967 9.12923 5.97603V13.3253L9.52893 13.4184C10.6563 13.6664 11.676 13.9507 12.5882 14.2711C13.5003 14.5915 14.2792 14.9895 14.9249 15.465C15.5706 15.9405 16.0625 16.5193 16.4007 17.2015C16.7389 17.8837 16.908 18.721 16.908 19.7133C16.908 20.747 16.7133 21.6462 16.3238 22.4112C15.9344 23.1761 15.4015 23.8066 14.725 24.3027C14.0486 24.7989 13.2441 25.1762 12.3115 25.4346C11.3788 25.693 10.3796 25.8326 9.31371 25.8532V28.9542H7.96088V25.8222C4.96823 25.6362 2.34458 24.6128 0.0898438 22.7523L1.41193 20.3955C1.7194 20.7056 2.09859 21.0209 2.54954 21.3413C3.00049 21.6618 3.51804 21.9563 4.10223 22.2251C4.68641 22.4938 5.3167 22.7264 5.99312 22.9228C6.66954 23.1192 7.3767 23.2484 8.11461 23.3104V15.8991L7.65341 15.7751C6.54655 15.5063 5.57292 15.2169 4.73252 14.9068C3.89212 14.5967 3.19009 14.2246 2.62641 13.7905C2.06272 13.3563 1.63741 12.8292 1.35044 12.209C1.06347 11.5888 0.919992 10.8446 0.919992 9.97628C0.919992 8.98396 1.09422 8.1002 1.44268 7.32495C1.79114 6.54971 2.27795 5.88817 2.90312 5.34033C3.5283 4.79249 4.27133 4.36353 5.13222 4.05343C5.99312 3.74333 6.936 3.55728 7.96088 3.49526V0.363281H9.31371V3.49526C10.6666 3.55728 11.8913 3.80535 12.9879 4.23949C14.0845 4.67363 15.0632 5.25247 15.9241 5.97603L14.6328 8.23974ZM13.9565 19.9924C13.9565 19.4549 13.8489 18.9949 13.6337 18.6125C13.4185 18.23 13.1059 17.8889 12.6959 17.5891C12.286 17.2894 11.7838 17.0258 11.1894 16.7984C10.595 16.571 9.9083 16.3539 9.12939 16.1472V23.3414C10.6667 23.3414 11.8555 23.0624 12.6959 22.5042C13.5363 21.946 13.9565 21.1088 13.9565 19.9924ZM4.03869 10.8751C3.86446 10.503 3.77734 10.0585 3.77734 9.5417C3.77734 8.48736 4.1258 7.65011 4.82272 7.02991C5.51963 6.40972 6.61624 6.05828 8.11256 5.97559V13.1078C7.37465 12.9218 6.72898 12.7305 6.17555 12.5341C5.62211 12.3377 5.17117 12.1052 4.82272 11.8364C4.47426 11.5677 4.21292 11.2472 4.03869 10.8751Z" fill="#19E4D4"/>
</svg>
